<svg id="visual" viewBox="0 0 960 300" width="960" height="300" xmlns="http://www.w3.org/2000/svg" xmlns:xlink="http://www.w3.org/1999/xlink" version="1.1"><rect x="0" y="0" width="960" height="300" fill="#ffc107"></rect><path d="M0 128L9.3 132.3C18.7 136.7 37.3 145.3 56.2 143.3C75 141.3 94 128.7 112.8 125.8C131.7 123 150.3 130 169.2 131.3C188 132.7 207 128.3 225.8 123.8C244.7 119.3 263.3 114.7 282.2 121.3C301 128 320 146 338.8 149.2C357.7 152.3 376.3 140.7 395.2 136.5C414 132.3 433 135.7 451.8 134.3C470.7 133 489.3 127 508.2 125.8C527 124.7 546 128.3 564.8 128.2C583.7 128 602.3 124 621.2 128C640 132 659 144 677.8 153C696.7 162 715.3 168 734.2 161.8C753 155.7 772 137.3 790.8 131.2C809.7 125 828.3 131 847.2 130.2C866 129.3 885 121.7 903.8 123.2C922.7 124.7 941.3 135.3 950.7 140.7L960 146L960 0L950.7 0C941.3 0 922.7 0 903.8 0C885 0 866 0 847.2 0C828.3 0 809.7 0 790.8 0C772 0 753 0 734.2 0C715.3 0 696.7 0 677.8 0C659 0 640 0 621.2 0C602.3 0 583.7 0 564.8 0C546 0 527 0 508.2 0C489.3 0 470.7 0 451.8 0C433 0 414 0 395.2 0C376.3 0 357.7 0 338.8 0C320 0 301 0 282.2 0C263.3 0 244.7 0 225.8 0C207 0 188 0 169.2 0C150.3 0 131.7 0 112.8 0C94 0 75 0 56.2 0C37.3 0 18.7 0 9.3 0L0 0Z" fill="#309f30"></path><path d="M0 116L9.3 111.3C18.7 106.7 37.3 97.3 56.2 94.5C75 91.7 94 95.3 112.8 95.2C131.7 95 150.3 91 169.2 96.3C188 101.7 207 116.3 225.8 119.3C244.7 122.3 263.3 113.7 282.2 106.2C301 98.7 320 92.3 338.8 97.7C357.7 103 376.3 120 395.2 119.8C414 119.7 433 102.3 451.8 100.7C470.7 99 489.3 113 508.2 116.7C527 120.3 546 113.7 564.8 108.5C583.7 103.3 602.3 99.7 621.2 102.3C640 105 659 114 677.8 118.2C696.7 122.3 715.3 121.7 734.2 115.8C753 110 772 99 790.8 93.2C809.7 87.3 828.3 86.7 847.2 94.2C866 101.7 885 117.3 903.8 121.2C922.7 125 941.3 117 950.7 113L960 109L960 0L950.7 0C941.3 0 922.7 0 903.8 0C885 0 866 0 847.2 0C828.3 0 809.7 0 790.8 0C772 0 753 0 734.2 0C715.3 0 696.7 0 677.8 0C659 0 640 0 621.2 0C602.3 0 583.7 0 564.8 0C546 0 527 0 508.2 0C489.3 0 470.7 0 451.8 0C433 0 414 0 395.2 0C376.3 0 357.7 0 338.8 0C320 0 301 0 282.2 0C263.3 0 244.7 0 225.8 0C207 0 188 0 169.2 0C150.3 0 131.7 0 112.8 0C94 0 75 0 56.2 0C37.3 0 18.7 0 9.3 0L0 0Z" fill="#3ca53c"></path><path d="M0 97L9.3 96.8C18.7 96.7 37.3 96.3 56.2 91.5C75 86.7 94 77.3 112.8 72.2C131.7 67 150.3 66 169.2 70.2C188 74.3 207 83.7 225.8 84.8C244.7 86 263.3 79 282.2 75.3C301 71.7 320 71.3 338.8 74.5C357.7 77.7 376.3 84.3 395.2 85.5C414 86.7 433 82.3 451.8 82C470.7 81.7 489.3 85.3 508.2 86.8C527 88.3 546 87.7 564.8 89C583.7 90.3 602.3 93.7 621.2 93.2C640 92.7 659 88.3 677.8 89.3C696.7 90.3 715.3 96.7 734.2 101.2C753 105.7 772 108.3 790.8 108.5C809.7 108.7 828.3 106.3 847.2 106C866 105.7 885 107.3 903.8 105.8C922.7 104.3 941.3 99.7 950.7 97.3L960 95L960 0L950.7 0C941.3 0 922.7 0 903.8 0C885 0 866 0 847.2 0C828.3 0 809.7 0 790.8 0C772 0 753 0 734.2 0C715.3 0 696.7 0 677.8 0C659 0 640 0 621.2 0C602.3 0 583.7 0 564.8 0C546 0 527 0 508.2 0C489.3 0 470.7 0 451.8 0C433 0 414 0 395.2 0C376.3 0 357.7 0 338.8 0C320 0 301 0 282.2 0C263.3 0 244.7 0 225.8 0C207 0 188 0 169.2 0C150.3 0 131.7 0 112.8 0C94 0 75 0 56.2 0C37.3 0 18.7 0 9.3 0L0 0Z" fill="#47ab47"></path><path d="M0 64L9.3 60.8C18.7 57.7 37.3 51.3 56.2 51.2C75 51 94 57 112.8 61C131.7 65 150.3 67 169.2 64C188 61 207 53 225.8 54.3C244.7 55.7 263.3 66.3 282.2 70C301 73.7 320 70.3 338.8 67.2C357.7 64 376.3 61 395.2 61.3C414 61.7 433 65.3 451.8 64C470.7 62.7 489.3 56.3 508.2 57C527 57.7 546 65.3 564.8 67.3C583.7 69.3 602.3 65.7 621.2 60.2C640 54.7 659 47.3 677.8 43.5C696.7 39.7 715.3 39.3 734.2 44C753 48.7 772 58.3 790.8 64C809.7 69.7 828.3 71.3 847.2 67C866 62.7 885 52.3 903.8 51.5C922.7 50.7 941.3 59.3 950.7 63.7L960 68L960 0L950.7 0C941.3 0 922.7 0 903.8 0C885 0 866 0 847.2 0C828.3 0 809.7 0 790.8 0C772 0 753 0 734.2 0C715.3 0 696.7 0 677.8 0C659 0 640 0 621.2 0C602.3 0 583.7 0 564.8 0C546 0 527 0 508.2 0C489.3 0 470.7 0 451.8 0C433 0 414 0 395.2 0C376.3 0 357.7 0 338.8 0C320 0 301 0 282.2 0C263.3 0 244.7 0 225.8 0C207 0 188 0 169.2 0C150.3 0 131.7 0 112.8 0C94 0 75 0 56.2 0C37.3 0 18.7 0 9.3 0L0 0Z" fill="#52b152"></path><path d="M0 23L9.3 24.5C18.7 26 37.3 29 56.2 30.7C75 32.3 94 32.7 112.8 34.7C131.7 36.7 150.3 40.3 169.2 38C188 35.7 207 27.3 225.8 27.8C244.7 28.3 263.3 37.7 282.2 42.3C301 47 320 47 338.8 45.7C357.7 44.3 376.3 41.7 395.2 37.7C414 33.7 433 28.3 451.8 30.2C470.7 32 489.3 41 508.2 40.7C527 40.3 546 30.7 564.8 30C583.7 29.3 602.3 37.7 621.2 41C640 44.3 659 42.7 677.8 40.5C696.7 38.3 715.3 35.7 734.2 37C753 38.3 772 43.7 790.8 45.2C809.7 46.7 828.3 44.3 847.2 44C866 43.7 885 45.3 903.8 43.7C922.7 42 941.3 37 950.7 34.5L960 32L960 0L950.7 0C941.3 0 922.7 0 903.8 0C885 0 866 0 847.2 0C828.3 0 809.7 0 790.8 0C772 0 753 0 734.2 0C715.3 0 696.7 0 677.8 0C659 0 640 0 621.2 0C602.3 0 583.7 0 564.8 0C546 0 527 0 508.2 0C489.3 0 470.7 0 451.8 0C433 0 414 0 395.2 0C376.3 0 357.7 0 338.8 0C320 0 301 0 282.2 0C263.3 0 244.7 0 225.8 0C207 0 188 0 169.2 0C150.3 0 131.7 0 112.8 0C94 0 75 0 56.2 0C37.3 0 18.7 0 9.3 0L0 0Z" fill="#5cb85c"></path></svg>