<svg id="visual" viewBox="0 0 960 300" width="960" height="300" xmlns="http://www.w3.org/2000/svg" xmlns:xlink="http://www.w3.org/1999/xlink" version="1.1"><rect x="0" y="0" width="960" height="300" fill="#5cb85c"></rect><path d="M0 134L16 133.7C32 133.3 64 132.7 96 139.2C128 145.7 160 159.3 192 158C224 156.7 256 140.3 288 131.3C320 122.3 352 120.7 384 124.5C416 128.3 448 137.7 480 145.3C512 153 544 159 576 157.8C608 156.7 640 148.3 672 144C704 139.7 736 139.3 768 142.5C800 145.7 832 152.3 864 154.7C896 157 928 155 944 154L960 153L960 0L944 0C928 0 896 0 864 0C832 0 800 0 768 0C736 0 704 0 672 0C640 0 608 0 576 0C544 0 512 0 480 0C448 0 416 0 384 0C352 0 320 0 288 0C256 0 224 0 192 0C160 0 128 0 96 0C64 0 32 0 16 0L0 0Z" fill="#c4a445"></path><path d="M0 85L16 89C32 93 64 101 96 105.7C128 110.3 160 111.7 192 109.5C224 107.3 256 101.7 288 100.3C320 99 352 102 384 108C416 114 448 123 480 127.8C512 132.7 544 133.3 576 127.3C608 121.3 640 108.7 672 107.2C704 105.7 736 115.3 768 119.5C800 123.7 832 122.3 864 122.7C896 123 928 125 944 126L960 127L960 0L944 0C928 0 896 0 864 0C832 0 800 0 768 0C736 0 704 0 672 0C640 0 608 0 576 0C544 0 512 0 480 0C448 0 416 0 384 0C352 0 320 0 288 0C256 0 224 0 192 0C160 0 128 0 96 0C64 0 32 0 16 0L0 0Z" fill="#d2ac3c"></path><path d="M0 93L16 94.5C32 96 64 99 96 95.3C128 91.7 160 81.3 192 78.5C224 75.7 256 80.3 288 82.2C320 84 352 83 384 80.2C416 77.3 448 72.7 480 74.5C512 76.3 544 84.7 576 88.2C608 91.7 640 90.3 672 85.5C704 80.7 736 72.3 768 67.8C800 63.3 832 62.7 864 63.8C896 65 928 68 944 69.5L960 71L960 0L944 0C928 0 896 0 864 0C832 0 800 0 768 0C736 0 704 0 672 0C640 0 608 0 576 0C544 0 512 0 480 0C448 0 416 0 384 0C352 0 320 0 288 0C256 0 224 0 192 0C160 0 128 0 96 0C64 0 32 0 16 0L0 0Z" fill="#e0b331"></path><path d="M0 59L16 61.8C32 64.7 64 70.3 96 68.8C128 67.3 160 58.7 192 55.8C224 53 256 56 288 60.5C320 65 352 71 384 71.8C416 72.7 448 68.3 480 63.2C512 58 544 52 576 54.5C608 57 640 68 672 71.7C704 75.3 736 71.7 768 66C800 60.3 832 52.7 864 51.7C896 50.7 928 56.3 944 59.2L960 62L960 0L944 0C928 0 896 0 864 0C832 0 800 0 768 0C736 0 704 0 672 0C640 0 608 0 576 0C544 0 512 0 480 0C448 0 416 0 384 0C352 0 320 0 288 0C256 0 224 0 192 0C160 0 128 0 96 0C64 0 32 0 16 0L0 0Z" fill="#efba22"></path><path d="M0 20L16 20.7C32 21.3 64 22.7 96 27C128 31.3 160 38.7 192 42C224 45.3 256 44.7 288 40C320 35.3 352 26.7 384 22.3C416 18 448 18 480 23C512 28 544 38 576 42.3C608 46.7 640 45.3 672 43C704 40.7 736 37.3 768 33.5C800 29.7 832 25.3 864 26.5C896 27.7 928 34.3 944 37.7L960 41L960 0L944 0C928 0 896 0 864 0C832 0 800 0 768 0C736 0 704 0 672 0C640 0 608 0 576 0C544 0 512 0 480 0C448 0 416 0 384 0C352 0 320 0 288 0C256 0 224 0 192 0C160 0 128 0 96 0C64 0 32 0 16 0L0 0Z" fill="#ffc107"></path></svg>